<svg width="331" height="314" viewBox="0 0 331 314" fill="none" xmlns="http://www.w3.org/2000/svg">
<mask id="mask0_252_120" style="mask-type:alpha" maskUnits="userSpaceOnUse" x="0" y="0" width="293" height="293">
<circle cx="146.5" cy="146.5" r="139" fill="#D9D9D9" stroke="white" stroke-width="15"/>
</mask>
<g mask="url(#mask0_252_120)">
<rect x="-11" y="96" width="70" height="70" rx="7" fill="white"/>
<rect x="-11" y="186" width="70" height="70" rx="7" fill="white"/>
<rect x="-11" y="6" width="70" height="70" rx="7" fill="white"/>
<path d="M79 103C79 99.134 82.134 96 86 96H142C145.866 96 149 99.134 149 103V127.076C149 128.335 148.66 129.571 148.017 130.654L129.035 162.578C127.773 164.7 125.487 166 123.018 166H86C82.134 166 79 162.866 79 159V103Z" fill="white"/>
<rect x="79" y="6" width="70" height="70" rx="7" fill="white"/>
<rect x="169" y="6" width="70" height="70" rx="7" fill="white"/>
<path d="M79 193C79 189.134 82.134 186 86 186H114C117.866 186 121 189.134 121 193V220.458C121 221.149 121.102 221.836 121.303 222.497L128.749 246.962C130.118 251.459 126.753 256 122.053 256H86C82.134 256 79 252.866 79 249V193Z" fill="white"/>
<path d="M169 103C169 99.134 172.134 96 176 96H237.089C238.144 96 239 96.8556 239 97.9111C239 98.832 238.343 99.622 237.438 99.7901L177.278 110.963C172.974 111.762 169 108.458 169 104.08V103Z" fill="white"/>
<path d="M259 103C259 99.134 262.134 96 266 96H322C325.866 96 329 99.134 329 103V151.354C329 157.238 322.182 160.497 317.603 156.801L261.603 111.601C259.957 110.272 259 108.27 259 106.154V103Z" fill="white"/>
</g>
<path d="M146.5 0C219.656 0 280.286 53.6226 291.234 123.707C285.632 118.467 279.465 113.825 272.832 109.883C256.974 55.0747 206.418 15 146.5 15C73.8746 15 15 73.8746 15 146.5C15 218.42 72.7364 276.852 144.388 277.98C149.897 283.321 155.982 288.071 162.54 292.129C157.272 292.703 151.921 293 146.5 293C65.5903 293 0 227.41 0 146.5C0 65.5903 65.5903 0 146.5 0Z" fill="white"/>
<path d="M251.197 300V258.701C251.197 255.344 250.444 252.16 249.125 249.285C252.278 248.651 255.431 247.925 258.573 247.002C268.231 244.168 282.093 232.42 286.191 220.933C290.731 208.186 290.731 195.256 286.191 182.508L286.187 182.504C285.373 180.214 284.134 177.904 282.372 175.409C285.613 163.428 283.339 153.408 283.232 152.941L281.837 147L275.699 147.072C275.126 147.08 262.399 147.311 250.001 154.498C235.65 151.71 220.892 151.71 206.541 154.498C194.147 147.311 181.42 147.08 180.842 147.072L174.697 147L173.302 152.941C173.195 153.408 170.921 163.428 174.162 175.409C172.4 177.904 171.161 180.218 170.344 182.508C165.807 195.256 165.807 208.186 170.347 220.937C174.437 232.42 188.299 244.168 197.961 247.002C201.103 247.925 204.256 248.651 207.409 249.285C206.043 252.239 205.335 255.451 205.333 258.701V263.567C205.096 263.704 204.848 263.814 204.619 263.977C203.514 264.779 193.654 271.449 183.579 264.319C180.025 260.726 178.282 258.094 176.6 255.549C172.824 249.851 169.564 245.726 159.065 240.507C157.251 239.606 155.151 239.458 153.227 240.095C151.304 240.733 149.714 242.104 148.807 243.906C147.9 245.709 147.751 247.796 148.393 249.708C149.034 251.62 150.414 253.2 152.227 254.101C159.837 257.881 161.175 259.894 163.827 263.905C165.795 266.872 168.241 270.568 173.172 275.468L173.993 276.174C180.46 280.998 187.168 282.719 193.306 282.719C197.41 282.698 201.48 281.969 205.333 280.565V300H251.197Z" fill="white"/>
<circle cx="219" cy="202" r="104" stroke="white" stroke-width="16"/>
</svg>
