<svg width="331" height="314" viewBox="0 0 331 314" fill="none" xmlns="http://www.w3.org/2000/svg">
<mask id="mask0_252_120" style="mask-type:alpha" maskUnits="userSpaceOnUse" x="0" y="0" width="293" height="293">
<circle cx="146.5" cy="146.5" r="139" fill="#D9D9D9" stroke="white" stroke-width="15"/>
</mask>
<g mask="url(#mask0_252_120)">
<rect x="-11" y="96" width="70" height="70" rx="7" fill="white"/>
<rect x="-11" y="186" width="70" height="70" rx="7" fill="white"/>
<rect x="-11" y="6" width="70" height="70" rx="7" fill="white"/>
<path d="M79 103C79 99.134 82.134 96 86 96H142C145.866 96 149 99.134 149 103V127.076C149 128.335 148.66 129.571 148.017 130.654L129.035 162.578C127.773 164.7 125.487 166 123.018 166H86C82.134 166 79 162.866 79 159V103Z" fill="white"/>
<rect x="79" y="6" width="70" height="70" rx="7" fill="white"/>
<rect x="169" y="6" width="70" height="70" rx="7" fill="white"/>
<path d="M79 193C79 189.134 82.134 186 86 186H114C117.866 186 121 189.134 121 193V220.458C121 221.149 121.102 221.836 121.303 222.497L128.749 246.962C130.118 251.459 126.753 256 122.053 256H86C82.134 256 79 252.866 79 249V193Z" fill="white"/>
<path d="M169 103C169 99.134 172.134 96 176 96H237.089C238.144 96 239 96.8556 239 97.9111C239 98.832 238.343 99.622 237.438 99.7901L177.278 110.963C172.974 111.762 169 108.458 169 104.08V103Z" fill="white"/>
<path d="M259 103C259 99.134 262.134 96 266 96H322C325.866 96 329 99.134 329 103V151.354C329 157.238 322.182 160.497 317.603 156.801L261.603 111.601C259.957 110.272 259 108.27 259 106.154V103Z" fill="white"/>
</g>
<path d="M146.5 0C219.656 0 280.286 53.6226 291.234 123.707C285.632 118.467 279.465 113.825 272.832 109.883C256.974 55.0747 206.418 15 146.5 15C73.8746 15 15 73.8746 15 146.5C15 218.42 72.7364 276.852 144.388 277.98C149.897 283.321 155.982 288.071 162.54 292.129C157.272 292.703 151.921 293 146.5 293C65.5903 293 0 227.41 0 146.5C0 65.5903 65.5903 0 146.5 0Z" fill="white"/>
<path d="M248.423 275.773V300H197.569C197.824 299.819 197.306 281.316 197.569 281.165V275.773C197.571 272.171 198.356 268.612 199.87 265.339C196.374 264.636 192.878 263.832 189.395 262.81C178.681 259.67 163.311 246.651 158.776 233.928C153.742 219.798 153.742 205.471 158.772 191.345C159.679 188.807 161.052 186.244 163.006 183.479C159.412 170.204 161.934 159.101 162.052 158.583L163.599 152L170.413 152.08C171.053 152.088 185.165 152.345 198.908 160.309C214.82 157.219 231.184 157.219 247.096 160.309C260.844 152.345 274.956 152.088 275.591 152.08L282.397 152L283.944 158.583C284.063 159.101 286.584 170.204 282.991 183.479C284.944 186.244 286.317 188.803 287.22 191.341L287.224 191.345C292.259 205.471 292.259 219.798 287.224 233.923C282.681 246.651 267.311 259.67 256.602 262.81C253.118 263.832 249.622 264.636 246.126 265.339C247.588 268.525 248.423 272.052 248.423 275.773Z" fill="white"/>
<circle cx="219" cy="202" r="104" stroke="white" stroke-width="16"/>
</svg>
