<svg width="296" height="296" viewBox="0 0 296 296" fill="none" xmlns="http://www.w3.org/2000/svg">
<path d="M238.315 281.487V258.778C238.315 256.771 237.868 254.868 237.084 253.149C238.958 252.77 240.831 252.336 242.698 251.784C248.436 250.09 256.672 243.066 259.107 236.199C261.805 228.579 261.805 220.849 259.107 213.228L259.104 213.225C258.621 211.856 257.885 210.475 256.838 208.984C258.764 201.821 257.413 195.831 257.349 195.552L256.52 192L252.873 192.043C252.533 192.048 244.971 192.186 237.604 196.483C229.078 194.816 220.309 194.816 211.783 196.483C204.418 192.186 196.856 192.048 196.514 192.043L192.862 192L192.033 195.552C191.97 195.831 190.618 201.821 192.544 208.984C191.497 210.475 190.762 211.858 190.276 213.228C187.58 220.849 187.58 228.579 190.278 236.202C192.708 243.066 200.944 250.09 206.685 251.784C208.551 252.336 210.425 252.77 212.298 253.149C211.487 254.915 211.066 256.835 211.065 258.778V261.687C210.924 261.769 210.777 261.835 210.64 261.933C209.984 262.412 204.125 266.399 198.139 262.137C196.028 259.989 194.992 258.415 193.993 256.894C191.749 253.487 189.812 251.021 183.574 247.901C182.497 247.362 181.249 247.274 180.106 247.655C178.963 248.036 178.018 248.856 177.479 249.933C176.941 251.011 176.852 252.259 177.233 253.402C177.614 254.545 178.434 255.49 179.512 256.028C184.033 258.288 184.828 259.491 186.404 261.889C187.573 263.663 189.027 265.872 191.956 268.802L192.444 269.224C196.286 272.108 200.272 273.137 203.919 273.137C206.357 273.124 208.775 272.688 211.065 271.849V281.507L238.315 281.487Z" fill="url(#paint0_linear_249_119)"/>
<mask id="mask0_249_119" style="mask-type:alpha" maskUnits="userSpaceOnUse" x="0" y="0" width="293" height="293">
<circle cx="146.5" cy="146.5" r="139" fill="#D9D9D9" stroke="white" stroke-width="15"/>
</mask>
<g mask="url(#mask0_249_119)">
<rect x="-11" y="57" width="44" height="44" rx="7" fill="#0E4429"/>
<rect x="-11" y="108" width="44" height="44" rx="7" fill="#006B32"/>
<rect x="-11" y="159" width="44" height="44" rx="7" fill="#1E1E1F"/>
<rect x="-11" y="210" width="44" height="44" rx="7" fill="#006B32"/>
<rect x="40" y="6" width="44" height="44" rx="7" fill="#0E4429"/>
<rect x="40" y="57" width="44" height="44" rx="7" fill="#0E4429"/>
<rect x="40" y="108" width="44" height="44" rx="7" fill="#3AD454"/>
<rect x="40" y="159" width="44" height="44" rx="7" fill="#26A642"/>
<rect x="40" y="210" width="44" height="44" rx="7" fill="#282829"/>
<rect x="40" y="261" width="44" height="44" rx="7" fill="#26A642"/>
<rect x="91" y="6" width="44" height="44" rx="7" fill="#282829"/>
<rect x="91" y="57" width="44" height="44" rx="7" fill="#26A642"/>
<rect x="91" y="108" width="44" height="44" rx="7" fill="#26A642"/>
<rect x="91" y="159" width="44" height="44" rx="7" fill="#282829"/>
<rect x="91" y="210" width="44" height="44" rx="7" fill="#26A642"/>
<rect x="91" y="261" width="44" height="44" rx="7" fill="#0E4429"/>
<rect x="142" y="6" width="44" height="44" rx="7" fill="#26A642"/>
<rect x="142" y="57" width="44" height="44" rx="7" fill="#0E4429"/>
<rect x="142" y="108" width="44" height="44" rx="7" fill="#3AD454"/>
<path d="M142 166C142 162.134 145.134 159 149 159H174.208C179.522 159 182.898 164.687 180.353 169.352L163.99 199.352C162.763 201.601 160.406 203 157.845 203H149C145.134 203 142 199.866 142 196V166Z" fill="#26A642"/>
<path d="M142 217C142 213.134 145.134 210 149 210H153.189C157.174 210 160.356 213.323 160.182 217.304L159.556 231.709C159.519 232.562 159.639 233.416 159.909 234.226L163.429 244.786C164.94 249.319 161.566 254 156.788 254H149C145.134 254 142 250.866 142 247V217Z" fill="#0E4429"/>
<path d="M142 268C142 264.134 145.134 261 149 261H168.653C171.81 261 174.576 263.113 175.407 266.158L183.589 296.158C184.803 300.611 181.451 305 176.835 305H149C145.134 305 142 301.866 142 298V268Z" fill="#26A642"/>
<rect x="193" y="6" width="44" height="44" rx="7" fill="#282829"/>
<rect x="193" y="57" width="44" height="44" rx="7" fill="#26A642"/>
<rect x="193" y="108" width="44" height="44" rx="7" fill="#282829"/>
<rect x="244" y="57" width="44" height="44" rx="7" fill="#006B32"/>
<rect x="244" y="108" width="44" height="44" rx="7" fill="#26A642"/>
<path d="M262.377 171.751C256.742 167.841 259.508 159 266.367 159H281C284.866 159 288 162.134 288 166V181.352C288 188.143 279.301 190.956 275.325 185.45L269.201 176.97C268.737 176.328 268.167 175.769 267.517 175.318L262.377 171.751Z" fill="#006B32"/>
</g>
<path d="M275.5 169.5C170.5 138.5 139 169.5 170.5 279.5C74.5 286 15 220.125 15 147.5C15 74.8746 73.8746 13 146.5 13C223 13 294 84 275.5 169.5Z" fill="url(#paint1_radial_249_119)"/>
<circle cx="221" cy="221" r="67" stroke="white" stroke-width="16"/>
<path d="M146.5 0C227.41 0 293 65.5903 293 146.5C293 166.067 289.163 184.738 282.201 201.803C280.114 195.018 276.921 188.718 272.832 183.113C276.195 171.491 278 159.206 278 146.5C278 73.8746 219.125 15 146.5 15C73.8746 15 15 73.8746 15 146.5C15 219.125 73.8746 278 146.5 278C159.825 278 172.685 276.015 184.806 272.33C190.461 276.341 196.802 279.45 203.618 281.446C186.066 288.885 166.764 293 146.5 293C65.5903 293 0 227.41 0 146.5C0 65.5903 65.5903 0 146.5 0Z" fill="white"/>
<defs>
<linearGradient id="paint0_linear_249_119" x1="201.333" y1="183.2" x2="253.374" y2="276.219" gradientUnits="userSpaceOnUse">
<stop stop-color="#58FC73"/>
<stop offset="1" stop-color="#01420C"/>
</linearGradient>
<radialGradient id="paint1_radial_249_119" cx="0" cy="0" r="1" gradientUnits="userSpaceOnUse" gradientTransform="translate(146.5 147.5) rotate(90) scale(131.5 131.5)">
<stop offset="0.497717" stop-opacity="0"/>
<stop offset="1" stop-opacity="0.49"/>
</radialGradient>
</defs>
</svg>
